<svg width="500" height="483" viewBox="0 0 500 483" fill="none" xmlns="http://www.w3.org/2000/svg">
<path fill-rule="evenodd" clip-rule="evenodd" d="M168.122 41.5309C168.122 101.298 172.677 111.627 208.028 132.018L226.664 142.767L226.852 161.035C227.052 180.463 228.926 186.581 235.858 190.432C240.055 192.764 240.175 192.014 240.175 163.335C240.175 129.904 242.474 134.229 217.249 120.211C185.736 102.698 181.223 94.6289 181.223 55.7863V29.1342L193.777 36.4398C219.828 51.5974 226.95 63.3345 227.026 91.2356C227.066 105.738 227.836 109.594 231.441 113.336C233.843 115.83 236.79 117.87 237.991 117.87C241.603 117.87 240.657 70.5132 236.777 56.9446C232.002 40.257 222.41 30.4784 194.808 14.167C181.624 6.37629 170.227 0 169.48 0C168.734 0 168.122 18.6891 168.122 41.5309ZM307.251 13.3125C295.509 20.4526 284.21 27.5565 282.142 29.1002C280.076 30.6438 277.402 32.634 276.201 33.5203C272.009 36.6189 264.653 53.3609 262.249 65.2793C258.681 82.962 259.022 117.87 262.762 117.87C269.424 117.87 272.382 109.993 273.448 89.4154C274.319 72.6235 275.504 67.2605 279.972 59.914C282.976 54.9748 286.795 49.7636 288.459 48.3288C291.731 45.5135 318.629 29.4674 320.079 29.4674C322.052 29.4674 320.788 73.503 318.55 82.7331C314.969 97.4985 303.469 109.891 283.845 120.134C259.107 133.048 259.825 131.756 259.825 163.365C259.825 191.162 260.611 193.392 268.559 188.192C270.959 186.624 272.127 180.238 272.926 164.299L274.017 142.547L291.378 132.862C311.858 121.435 322.166 111.548 327.782 97.9451C331.319 89.3814 331.878 82.0168 331.878 44.013C331.878 19.8066 331.14 0.0748017 330.24 0.165471C329.341 0.258406 318.996 6.17455 307.251 13.3125ZM81.2926 85.5688C82.4432 124.731 84.3319 130.742 100.129 145.487C110.192 154.878 140.146 174.538 144.393 174.538C146.598 174.538 146.9 167.495 144.924 162.15C144.175 160.121 138.91 156.014 133.227 153.024C108.148 139.832 100.559 127.086 100.485 98.0358C100.459 87.7494 101.076 79.3353 101.86 79.3353C105.33 79.3353 139.33 100.953 145.694 107.205C156.478 117.799 160.264 132.558 158.67 157.775C157.539 175.626 157.902 179.427 161.096 183.335C164.897 187.984 201.712 210.805 205.413 210.805C208.624 210.805 207.736 200.12 204.221 196.47C202.459 194.641 194.598 189.419 186.753 184.865L172.489 176.582L172.467 151.193C172.45 129.237 171.749 124.271 167.286 114.469C164.448 108.236 159.299 100.402 155.843 97.0588C149.511 90.9318 86 52.1346 82.3013 52.1346C81.1485 52.1346 80.7227 66.1928 81.2926 85.5688ZM401.609 60.8524C393.88 65.6466 380.304 73.9292 371.441 79.2582C350.437 91.8861 338.771 103.004 333.299 115.603C329.607 124.105 328.935 129.965 329.262 150.794L329.653 175.784L312.753 185.969C297.509 195.153 295.782 196.901 295.146 203.785C294.533 210.413 294.963 211.193 298.421 209.708C300.609 208.767 303.631 207.949 305.131 207.89C306.633 207.831 307.86 207.004 307.86 206.052C307.86 205.102 315.227 200.099 324.231 194.94C335.175 188.668 340.956 183.92 341.664 180.615C342.249 177.895 342.987 163.784 343.306 149.257C343.865 123.79 344.127 122.5 350.614 113.205C355.373 106.386 363.679 99.7585 378.998 90.5533L400.655 77.54L401.301 93.4071C402.474 122.192 395.293 135.151 368.45 152.682C357.537 159.808 355.895 161.805 355.895 167.953C355.895 176.308 356.24 176.233 377.751 163.19C397.657 151.122 413.162 135.171 416.555 123.273C419.52 112.874 420.275 52.1346 417.439 52.1346C416.463 52.1346 409.338 56.0583 401.609 60.8524ZM397.515 174.993C371.212 188.745 364.428 194.018 368.996 197.153C374.784 201.129 380.959 199.671 398.633 190.158C414.31 181.723 417.035 180.962 427.587 182.081C436.015 182.974 443.432 185.948 454.417 192.839L469.598 202.362L463.376 206.292C443.118 219.081 423.681 228.64 417.031 229.086C401.869 230.102 397.725 228.744 377.664 216.189C366.459 209.175 355.258 203.45 352.773 203.463C350.286 203.477 338.087 209.638 325.664 217.152C305.441 229.381 303.539 231.072 307.507 233.275C315.081 237.485 321.277 236.061 336.655 226.577L351.511 217.415L369.533 228.789C403.793 250.414 418.338 249.498 461.985 222.966C477.489 213.539 492.384 204.932 495.087 203.84C497.79 202.745 500 200.875 500 199.68C500 197.164 467.618 176.453 453.749 170.099C448.566 167.724 438.489 165.398 431.358 164.929C419.428 164.145 416.729 164.947 397.515 174.993ZM52.4017 167.057C46.1157 169.417 -1.39864e-06 197.67 0.0480335 199.132C0.0982519 200.664 57.0961 234.551 68.7074 239.951C72.3493 241.644 81.69 243.303 89.4651 243.639C105.166 244.314 110.004 242.544 134.017 227.33L149.081 217.784L159.148 223.778C164.683 227.073 171.153 231.113 173.522 232.754C178.963 236.526 188 236.591 192.873 232.892C196.175 230.385 194.026 228.477 175.031 217.025C163.155 209.865 151.116 204.005 148.277 204.005C145.439 204.005 133.972 209.749 122.793 216.771C111.614 223.791 101.91 228.957 101.227 228.25C100.546 227.54 97.7642 227.84 95.048 228.912C92.2205 230.027 86.2249 229.954 81.0197 228.742C71.8581 226.604 32.7511 204.86 32.7511 201.902C32.7511 201.027 41.0306 195.89 51.1528 190.489C67.8079 181.598 70.5939 180.796 80.5109 182.016C86.5371 182.757 94.5917 185.203 98.4105 187.451C121.05 200.779 124.906 201.809 132.009 196.418C135.681 193.63 134.539 192.504 118.806 183.385C92.7074 168.261 85.6397 165.718 69.869 165.777C62.0633 165.806 54.2031 166.382 52.4017 167.057ZM169.646 248.514C166.653 251.62 168.205 253.873 173.338 253.873C176.207 253.873 180.592 255.657 183.079 257.84C186.614 260.938 225.448 349.127 247.461 404.043C251.432 413.947 254.421 414.874 256.373 406.802C257.579 401.817 287.646 330.776 310.648 278.562C318.175 261.48 324.865 253.873 332.365 253.873C334.498 253.873 336.245 252.343 336.245 250.473C336.245 247.667 332.242 247.073 313.319 247.073C295.255 247.073 290.393 247.737 290.393 250.208C290.393 251.933 292.354 253.875 294.749 254.526C297.144 255.176 299.657 257.205 300.334 259.034C301.011 260.863 294.07 281.105 284.913 304.017C275.753 326.929 267.1 348.608 265.681 352.194C264.262 355.78 261.085 363.378 258.62 369.077L254.142 379.44L231.751 320.995C219.435 288.851 209.67 260.852 210.05 258.778C210.432 256.704 213 254.673 215.76 254.265C218.517 253.857 220.393 252.327 219.926 250.865C218.987 247.927 172.312 245.744 169.646 248.514ZM0 253.873C0 255.342 26.9279 256.14 76.4192 256.14C125.91 256.14 152.838 255.342 152.838 253.873C152.838 252.404 125.91 251.606 76.4192 251.606C26.9279 251.606 0 252.404 0 253.873ZM349.345 253.8C349.345 256.507 384.36 257.486 450.328 256.625C480.323 256.235 500 255.111 500 253.791C500 252.431 471.568 251.606 424.673 251.606C377.557 251.606 349.345 252.429 349.345 253.8ZM95.524 278.365C89.821 278.743 85.1528 280.02 85.1528 281.198C85.1528 282.377 86.5917 283.34 88.3515 283.34C90.1092 283.34 92.5655 285.312 93.81 287.724C96.3843 292.72 96.9148 373.742 94.3996 377.602C93.5175 378.955 90.8297 381.22 88.428 382.634C85.0131 384.645 90.8712 385.22 115.286 385.275L146.511 385.343L149.413 377.976C154.441 365.212 155.435 360.409 153.042 360.409C151.79 360.409 149.258 363.439 147.413 367.141C142.972 376.058 138.131 378.445 121.166 380.091L106.987 381.464V359.604V337.742H120.293C131.76 337.742 133.753 338.367 134.738 342.275C136.954 351.072 139.738 346.657 139.738 334.342C139.738 327.485 138.755 321.875 137.555 321.875C136.354 321.875 135.371 323.296 135.371 325.032C135.371 329.319 130.5 330.941 117.646 330.941H106.83L107.454 308.841L108.079 286.74H123.362C137.118 286.74 138.862 287.25 140.801 291.841C144.124 299.704 146.288 297.918 146.29 287.307L146.293 277.673H126.094C114.985 277.673 101.227 277.984 95.524 278.365ZM382.642 278.233C366.731 278.621 353.712 279.686 353.712 280.602C353.712 281.518 355.921 283.272 358.624 284.503C363.489 286.718 363.537 287.196 363.537 333.14V379.542L358.079 382.444C353.45 384.905 357.563 385.261 385.166 384.778L417.712 384.209L421.605 372.309C423.747 365.765 424.954 360.409 424.29 360.409C423.627 360.409 419.511 364.53 415.144 369.566C407.731 378.114 406.227 378.815 392.467 380.093L377.729 381.464V359.604V337.742H391.035C402.502 337.742 404.496 338.367 405.48 342.275C407.697 351.072 410.48 346.657 410.48 334.342C410.48 321.124 408.88 319.023 404.437 326.408C402.247 330.048 399.345 330.941 389.721 330.941H377.729V308.274V285.607H391.766C405.295 285.607 412.664 288.862 412.664 294.835C412.664 295.993 413.646 296.941 414.847 296.941C416.048 296.941 417.031 292.351 417.031 286.74C417.031 279.827 416.151 276.699 414.301 277.034C412.801 277.306 398.552 277.848 382.642 278.233ZM212.882 465.338V483L223.779 482.338C232.673 481.801 234.825 480.844 235.496 477.145C236.282 472.802 236.138 472.777 232.068 476.578C225.347 482.857 220.524 481.672 220.524 473.745C220.524 466.616 224.162 464.828 228.821 469.665C230.858 471.78 231.441 470.925 231.441 465.811C231.441 460.698 230.858 459.843 228.821 461.958C224.162 466.795 220.524 465.007 220.524 457.878C220.524 452.59 221.493 451.078 224.891 451.078C227.293 451.078 229.258 452.098 229.258 453.345C229.258 454.591 230.24 455.611 231.441 455.611C232.642 455.611 233.624 453.641 233.624 451.236C233.624 447.469 232.181 446.916 223.253 447.27L212.882 447.678V465.338ZM344.983 449.378C344.98 450.312 345.961 451.078 347.162 451.078C350.465 451.078 349.943 479.917 346.616 481.311C345.116 481.939 349.537 482.535 356.441 482.633C367.895 482.796 368.996 482.383 368.996 477.927C368.996 473.339 368.753 473.269 365.002 476.794C358.531 482.875 353.712 481.574 353.712 473.745C353.712 466.616 357.349 464.828 362.009 469.665C364.046 471.78 364.59 470.898 364.456 465.698C364.362 462.019 363.788 460.288 363.183 461.845C362.576 463.404 360.199 464.678 357.897 464.678C354.703 464.678 353.712 463.069 353.712 457.878C353.712 452.841 354.731 451.078 357.642 451.078C359.804 451.078 362.751 452.302 364.192 453.798C366.229 455.913 366.812 455.913 366.812 453.798C366.812 448.358 365.539 447.678 355.354 447.678C349.653 447.678 344.987 448.444 344.983 449.378ZM137.009 450.312C138.788 451.057 139.738 456.448 139.738 465.811C139.738 475.175 138.788 480.566 137.009 481.311C135.509 481.939 137.718 482.454 141.921 482.454C146.124 482.454 148.336 481.939 146.834 481.311C145.334 480.681 144.105 477.193 144.105 473.557C144.105 467.355 144.646 466.945 152.838 466.945C160.496 466.945 161.572 467.586 161.572 472.158C161.572 475.026 160.393 478.596 158.952 480.092C156.915 482.207 157.764 482.812 162.773 482.812H169.214V465.811V448.811L162.664 448.99C159.061 449.088 157.343 449.684 158.843 450.312C160.345 450.942 161.572 454.43 161.572 458.066C161.572 464.268 161.031 464.678 152.838 464.678C144.646 464.678 144.105 464.268 144.105 458.066C144.105 454.43 145.334 450.942 146.834 450.312C148.336 449.684 146.124 449.169 141.921 449.169C137.718 449.169 135.509 449.684 137.009 450.312ZM276.747 450.312C278.526 451.057 279.476 456.448 279.476 465.811C279.476 475.175 278.526 480.566 276.747 481.311C275.247 481.939 277.041 482.535 280.736 482.633C287.061 482.801 287.404 482.383 286.596 475.445L285.738 468.078L291.887 475.465C295.334 479.607 300.12 482.844 302.779 482.832C307.264 482.812 307.168 482.442 301.046 476.087C294.825 469.629 294.707 469.134 298.094 463.771C300.843 459.415 301.087 457.148 299.205 453.496C297.216 449.638 294.782 448.843 285.404 448.99C279.142 449.088 275.247 449.684 276.747 450.312ZM292.576 454.478C294.745 457.191 294.745 458.565 292.576 461.278C288.367 466.544 286.026 465.329 286.026 457.878C286.026 450.427 288.367 449.212 292.576 454.478Z" fill="url(#paint0_linear_203_630)"/>
<defs>
<linearGradient id="paint0_linear_203_630" x1="79.5" y1="-56.5" x2="420" y2="744" gradientUnits="userSpaceOnUse">
<stop stop-color="#008080"/>
<stop offset="1" stop-color="#001A1A"/>
</linearGradient>
</defs>
</svg>
