<svg width="160" height="160" viewBox="0 0 160 160" fill="none" xmlns="http://www.w3.org/2000/svg">
<path fill-rule="evenodd" clip-rule="evenodd" d="M53.7991 13.7576C53.7991 33.5561 55.2566 36.9779 66.5691 43.7328L72.5324 47.2935L72.5925 53.3449C72.6568 59.7807 73.2562 61.8073 75.4746 63.083C76.8175 63.8557 76.8559 63.6071 76.8559 54.107C76.8559 43.0323 77.5916 44.4649 69.5197 39.8215C59.4355 34.0202 57.9913 31.347 57.9913 18.4799V9.65108L62.0087 12.0712C70.3448 17.0923 72.6239 20.9804 72.6484 30.223C72.661 35.0271 72.9076 36.3044 74.0611 37.5441C74.8297 38.37 75.7729 39.0458 76.1572 39.0458C77.3128 39.0458 77.0103 23.3584 75.7687 18.8636C74.2407 13.3357 71.1714 10.0963 62.3385 4.69301C58.1198 2.11223 54.4727 0 54.2337 0C53.9948 0 53.7991 6.19102 53.7991 13.7576ZM98.3203 4.40993C94.5628 6.7752 90.9471 9.12846 90.2854 9.63981C89.6245 10.1512 88.7686 10.8104 88.3843 11.104C87.0428 12.1305 84.6889 17.6765 83.9196 21.6246C82.778 27.4823 82.887 39.0458 84.0838 39.0458C86.2156 39.0458 87.1623 36.4365 87.5032 29.62C87.782 24.0575 88.1614 22.2809 89.5909 19.8473C90.5523 18.2111 91.7743 16.4848 92.3067 16.0095C93.3541 15.0769 101.961 9.76146 102.425 9.76146C103.057 9.76146 102.652 24.3488 101.936 27.4064C100.79 32.2977 97.1102 36.4027 90.8304 39.796C82.9142 44.0737 83.1441 43.6457 83.1441 54.1168C83.1441 63.3248 83.3956 64.0637 85.9389 62.3412C86.7067 61.8216 87.0805 59.7063 87.3362 54.4261L87.6856 47.2207L93.2409 44.0121C99.7946 40.227 103.093 36.9516 104.89 32.4456C106.022 29.6087 106.201 27.1691 106.201 14.5799C106.201 6.5612 105.965 0.024779 105.677 0.0548143C105.389 0.0856004 102.079 2.0454 98.3203 4.40993ZM26.0136 28.3458C26.3818 41.3187 26.9862 43.3101 32.0412 48.1946C35.2615 51.3055 44.8468 57.8179 46.2058 57.8179C46.9114 57.8179 47.0079 55.4849 46.3755 53.7143C46.1359 53.0423 44.4514 51.6817 42.6327 50.6912C34.6075 46.3211 32.1789 42.0989 32.1551 32.4756C32.1467 29.0681 32.3445 26.2808 32.5953 26.2808C33.7055 26.2808 44.5855 33.442 46.6222 35.5129C50.073 39.0225 51.2845 43.9115 50.7745 52.2651C50.4126 58.1783 50.5286 59.4375 51.5507 60.732C52.7672 62.2721 64.5478 69.832 65.7321 69.832C66.7598 69.832 66.4755 66.2923 65.3506 65.0834C64.7867 64.4774 62.2714 62.7474 59.761 61.2389L55.1965 58.4951L55.1895 50.0845C55.1839 42.8115 54.9596 41.1663 53.5315 37.9195C52.6232 35.8546 50.9757 33.2595 49.8697 32.152C47.8435 30.1224 27.52 17.2703 26.3364 17.2703C25.9675 17.2703 25.8313 21.9272 26.0136 28.3458ZM128.515 20.1582C126.042 21.7463 121.697 24.49 118.861 26.2553C112.14 30.4385 108.407 34.1215 106.656 38.2949C105.474 41.1115 105.259 43.0525 105.364 49.9524L105.489 58.2308L100.081 61.6045C95.2028 64.6471 94.6501 65.226 94.4468 67.5065C94.2505 69.702 94.3881 69.9604 95.4949 69.4685C96.1949 69.1569 97.1619 68.8858 97.6419 68.8663C98.1226 68.8468 98.5153 68.5727 98.5153 68.2574C98.5153 67.9427 100.873 66.2855 103.754 64.5765C107.256 62.4988 109.106 60.9258 109.332 59.831C109.52 58.9299 109.756 54.2557 109.858 49.4433C110.037 41.0071 110.121 40.5799 112.196 37.5005C113.719 35.2419 116.377 33.0463 121.279 29.997L128.21 25.6861L128.416 30.9423C128.792 40.4778 126.494 44.7705 117.904 50.5779C114.412 52.9386 113.886 53.6002 113.886 55.6365C113.886 58.4043 113.997 58.3795 120.88 54.0589C127.25 50.0613 132.212 44.7773 133.297 40.8359C134.246 37.3909 134.488 17.2703 133.58 17.2703C133.268 17.2703 130.988 18.57 128.515 20.1582ZM127.205 57.9688C118.788 62.5244 116.617 64.2709 118.079 65.3094C119.931 66.6264 121.907 66.1436 127.563 62.9922C132.579 60.1981 133.451 59.9459 136.828 60.3168C139.525 60.6126 141.898 61.5978 145.413 63.8805L150.271 67.0349L148.28 68.3369C141.798 72.5734 135.578 75.7399 133.45 75.8878C128.598 76.2242 127.272 75.7744 120.852 71.6153C117.267 69.2921 113.682 67.3953 112.887 67.3998C112.092 67.4044 108.188 69.4453 104.212 71.9344C97.7411 75.9854 97.1326 76.5456 98.4021 77.2754C100.826 78.6698 102.809 78.1983 107.73 75.0566L112.483 72.0215L118.25 75.7894C129.214 82.9529 133.868 82.6495 147.835 73.8604C152.797 70.7375 157.563 67.8864 158.428 67.5245C159.293 67.1618 160 66.5423 160 66.1466C160 65.3131 149.638 58.4524 145.2 56.3476C143.541 55.5607 140.316 54.7903 138.035 54.6349C134.217 54.3751 133.353 54.6409 127.205 57.9688ZM16.7686 55.3399C14.757 56.1216 -4.47564e-07 65.4806 0.0153707 65.9649C0.0314406 66.4725 18.2707 77.6982 21.9864 79.4868C23.1518 80.0477 26.1408 80.5973 28.6288 80.7085C33.6531 80.9322 35.2014 80.3458 42.8856 75.3059L47.7058 72.1439L50.9275 74.1292C52.6987 75.221 54.7689 76.5591 55.527 77.1027C57.2681 78.3522 60.16 78.374 61.7195 77.1485C62.7759 76.3181 62.0884 75.6858 56.0098 71.8924C52.2096 69.5203 48.357 67.5793 47.4487 67.5793C46.5404 67.5793 42.8709 69.482 39.2936 71.8083C35.7163 74.1338 32.6114 75.845 32.3927 75.6107C32.1747 75.3757 31.2845 75.4748 30.4154 75.83C29.5106 76.1994 27.592 76.1754 25.9263 75.7737C22.9946 75.0656 10.4803 67.8624 10.4803 66.8825C10.4803 66.5927 13.1298 64.8912 16.3689 63.1018C21.6985 60.1568 22.59 59.891 25.7635 60.295C27.6919 60.5406 30.2693 61.3507 31.4914 62.0956C38.7361 66.5108 39.97 66.8517 42.2428 65.0661C43.418 64.1425 43.0526 63.7693 38.0178 60.7485C29.6664 55.7387 27.4047 54.8962 22.3581 54.9157C19.8603 54.9255 17.345 55.1162 16.7686 55.3399ZM54.2868 82.3236C53.3289 83.3523 53.8257 84.0987 55.4683 84.0987C56.3864 84.0987 57.7893 84.6896 58.5852 85.4127C59.7163 86.4392 72.1432 115.653 79.1874 133.845C80.4584 137.125 81.4149 137.432 82.0395 134.758C82.4252 133.107 92.0468 109.574 99.4075 92.2773C101.816 86.6187 103.957 84.0987 106.357 84.0987C107.039 84.0987 107.598 83.5919 107.598 82.9724C107.598 82.0428 106.318 81.8461 100.262 81.8461C94.4817 81.8461 92.9258 82.0661 92.9258 82.8845C92.9258 83.4559 93.5532 84.0994 94.3196 84.3149C95.0861 84.5305 95.8903 85.2025 96.1069 85.8084C96.3235 86.4144 94.1024 93.1198 91.1721 100.71C88.2411 108.3 85.4721 115.481 85.018 116.669C84.5639 117.857 83.5472 120.374 82.7584 122.261L81.3254 125.695L74.1603 106.334C70.219 95.6855 67.0945 86.4107 67.2161 85.7236C67.3383 85.0365 68.16 84.3638 69.0431 84.2286C69.9256 84.0934 70.5258 83.5866 70.3763 83.1023C70.0758 82.1291 55.1399 81.406 54.2868 82.3236ZM0 84.0987C0 84.5853 8.61694 84.8496 24.4541 84.8496C40.2914 84.8496 48.9083 84.5853 48.9083 84.0987C48.9083 83.6121 40.2914 83.3478 24.4541 83.3478C8.61694 83.3478 0 83.6121 0 84.0987ZM111.79 84.0747C111.79 84.9712 122.995 85.2956 144.105 85.0103C153.703 84.8811 160 84.5087 160 84.0717C160 83.6211 150.902 83.3478 135.895 83.3478C120.818 83.3478 111.79 83.6204 111.79 84.0747ZM30.5677 92.212C28.7427 92.3374 27.2489 92.7601 27.2489 93.1506C27.2489 93.541 27.7093 93.8601 28.2725 93.8601C28.8349 93.8601 29.621 94.5134 30.0192 95.3124C30.843 96.9673 31.0128 123.807 30.2079 125.086C29.9256 125.534 29.0655 126.284 28.2969 126.752C27.2042 127.419 29.0788 127.609 36.8915 127.627L46.8835 127.65L47.8121 125.209C49.4211 120.981 49.739 119.39 48.9733 119.39C48.5729 119.39 47.7624 120.394 47.1721 121.62C45.7509 124.574 44.2019 125.365 38.7731 125.91L34.2358 126.365V119.124V111.881H38.4936C42.1631 111.881 42.801 112.089 43.1162 113.383C43.8253 116.297 44.7162 114.835 44.7162 110.755C44.7162 108.484 44.4017 106.625 44.0175 106.625C43.6332 106.625 43.3188 107.096 43.3188 107.671C43.3188 109.091 41.76 109.629 37.6468 109.629H34.1855L34.3853 102.308L34.5852 94.9865H39.476C43.8777 94.9865 44.436 95.1554 45.0564 96.676C46.1198 99.2808 46.8122 98.6891 46.8129 95.1742L46.8136 91.9829H40.35C36.7951 91.9829 32.3927 92.0858 30.5677 92.212ZM122.445 92.1684C117.354 92.2968 113.188 92.6497 113.188 92.9531C113.188 93.2564 113.895 93.8376 114.76 94.2454C116.317 94.979 116.332 95.1374 116.332 110.357V125.728L114.585 126.689C113.104 127.505 114.42 127.623 123.253 127.463L133.668 127.274L134.914 123.332C135.599 121.164 135.985 119.39 135.773 119.39C135.561 119.39 134.243 120.755 132.846 122.424C130.474 125.255 129.993 125.487 125.59 125.911L120.873 126.365V119.124V111.881H125.131C128.801 111.881 129.439 112.089 129.754 113.383C130.463 116.297 131.354 114.835 131.354 110.755C131.354 106.377 130.842 105.681 129.42 108.127C128.719 109.333 127.79 109.629 124.711 109.629H120.873V102.12V94.611H125.365C129.694 94.611 132.052 95.6893 132.052 97.6679C132.052 98.0516 132.367 98.3654 132.751 98.3654C133.135 98.3654 133.45 96.8449 133.45 94.9865C133.45 92.6963 133.168 91.6601 132.576 91.7712C132.096 91.8613 127.537 92.0408 122.445 92.1684ZM68.1223 154.149V160L71.6094 159.781C74.4552 159.603 75.1441 159.286 75.3586 158.061C75.6101 156.622 75.564 156.614 74.2617 157.873C72.1111 159.953 70.5677 159.56 70.5677 156.934C70.5677 154.573 71.7317 153.98 73.2227 155.583C73.8746 156.283 74.0611 156 74.0611 154.306C74.0611 152.612 73.8746 152.329 73.2227 153.03C71.7317 154.632 70.5677 154.04 70.5677 151.678C70.5677 149.926 70.8779 149.425 71.9651 149.425C72.7336 149.425 73.3624 149.763 73.3624 150.176C73.3624 150.589 73.6769 150.927 74.0611 150.927C74.4454 150.927 74.7598 150.275 74.7598 149.478C74.7598 148.23 74.298 148.047 71.441 148.164L68.1223 148.299V154.149ZM110.394 148.862C110.394 149.172 110.707 149.425 111.092 149.425C112.149 149.425 111.982 158.979 110.917 159.441C110.437 159.649 111.852 159.846 114.061 159.878C117.726 159.932 118.079 159.796 118.079 158.32C118.079 156.8 118.001 156.776 116.801 157.944C114.73 159.959 113.188 159.528 113.188 156.934C113.188 154.573 114.352 153.98 115.843 155.583C116.495 156.283 116.669 155.991 116.626 154.269C116.596 153.05 116.412 152.476 116.219 152.992C116.024 153.509 115.264 153.931 114.527 153.931C113.505 153.931 113.188 153.398 113.188 151.678C113.188 150.01 113.514 149.425 114.445 149.425C115.137 149.425 116.08 149.831 116.541 150.326C117.193 151.027 117.38 151.027 117.38 150.326C117.38 148.524 116.973 148.299 113.713 148.299C111.889 148.299 110.396 148.553 110.394 148.862ZM43.8428 149.172C44.4122 149.419 44.7162 151.204 44.7162 154.306C44.7162 157.408 44.4122 159.194 43.8428 159.441C43.3628 159.649 44.0699 159.819 45.4148 159.819C46.7598 159.819 47.4676 159.649 46.9869 159.441C46.5069 159.232 46.1135 158.076 46.1135 156.872C46.1135 154.817 46.2868 154.682 48.9083 154.682C51.3586 154.682 51.7031 154.894 51.7031 156.409C51.7031 157.358 51.3258 158.541 50.8646 159.037C50.2128 159.737 50.4845 159.938 52.0873 159.938H54.1485V154.306V148.674L52.0524 148.734C50.8996 148.766 50.3497 148.964 50.8297 149.172C51.3104 149.38 51.7031 150.536 51.7031 151.74C51.7031 153.795 51.5298 153.931 48.9083 153.931C46.2868 153.931 46.1135 153.795 46.1135 151.74C46.1135 150.536 46.5069 149.38 46.9869 149.172C47.4676 148.964 46.7598 148.793 45.4148 148.793C44.0699 148.793 43.3628 148.964 43.8428 149.172ZM88.559 149.172C89.1284 149.419 89.4323 151.204 89.4323 154.306C89.4323 157.408 89.1284 159.194 88.559 159.441C88.079 159.649 88.6533 159.846 89.8354 159.878C91.8596 159.934 91.9693 159.796 91.7107 157.497L91.4362 155.057L93.4037 157.504C94.5069 158.876 96.0384 159.948 96.8894 159.944C98.3245 159.938 98.2938 159.815 96.3347 157.71C94.3441 155.571 94.3064 155.407 95.39 153.63C96.2697 152.187 96.3479 151.436 95.7457 150.227C95.1092 148.949 94.3301 148.685 91.3293 148.734C89.3254 148.766 88.079 148.964 88.559 149.172ZM93.6245 150.552C94.3183 151.45 94.3183 151.906 93.6245 152.804C92.2774 154.549 91.5284 154.146 91.5284 151.678C91.5284 149.21 92.2774 148.807 93.6245 150.552Z" fill="white"/>
</svg>
